<?xml version="1.0" encoding="UTF-8" standalone="no"?>
<svg width="622px" height="622px" viewBox="0 0 622 622" version="1.1" xmlns="http://www.w3.org/2000/svg" xmlns:xlink="http://www.w3.org/1999/xlink" xmlns:sketch="http://www.bohemiancoding.com/sketch/ns">
    <!-- Generator: Sketch 3.3.1 (12002) - http://www.bohemiancoding.com/sketch -->
    <title>compass1</title>
    <desc>Created with Sketch.</desc>
    <defs>
        <filter x="-50%" y="-50%" width="200%" height="200%" filterUnits="objectBoundingBox" id="filter-1">
            <feOffset dx="74" dy="73" in="SourceAlpha" result="shadowOffsetInner1"></feOffset>
            <feGaussianBlur stdDeviation="0" in="shadowOffsetInner1" result="shadowBlurInner1"></feGaussianBlur>
            <feComposite in="shadowBlurInner1" in2="SourceAlpha" operator="arithmetic" k2="-1" k3="1" result="shadowInnerInner1"></feComposite>
            <feColorMatrix values="0 0 0 0 0.911724065   0 0 0 0 0.911724065   0 0 0 0 0.911724065  0 0 0 0.35 0" in="shadowInnerInner1" type="matrix" result="shadowMatrixInner1"></feColorMatrix>
            <feMerge>
                <feMergeNode in="SourceGraphic"></feMergeNode>
                <feMergeNode in="shadowMatrixInner1"></feMergeNode>
            </feMerge>
        </filter>
    </defs>
    <g id="Page-1" stroke="none" stroke-width="1" fill="none" fill-rule="evenodd" sketch:type="MSPage">
        <g id="compass1" sketch:type="MSLayerGroup" transform="translate(-32.000000, -33.000000)">
            <circle id="Oval-1" stroke="#000000" fill="#FFFFFF" sketch:type="MSShapeGroup" cx="343.026606" cy="343.526606" r="310"></circle>
            <circle id="Oval-1-Copy" stroke="#000000" fill="#FFFFFF" filter="url(#filter-1)" sketch:type="MSShapeGroup" cx="343.026606" cy="343.526606" r="285"></circle>
            <circle id="Oval-15" fill="#000000" sketch:type="MSShapeGroup" cx="343.026606" cy="343.526606" r="13.5"></circle>
            <path d="M343.026606,101.026606 L343.026606,126.026606 M585.526606,343.526606 L560.526606,343.526606 M343.026606,586.026606 L343.026606,561.026606 M100.526606,343.526606 L125.526606,343.526606" id="Line" stroke="#000000" stroke-width="3" fill="#D8D8D8" sketch:type="MSShapeGroup"></path>
            <path d="M343.026606,101.026606 L343.026606,126.026606 M585.526606,343.526606 L560.526606,343.526606 M343.026606,586.026606 L343.026606,561.026606 M100.526606,343.526606 L125.526606,343.526606" id="Line-Copy" stroke="#000000" stroke-width="2" sketch:type="MSShapeGroup" transform="translate(343.026606, 343.526606) rotate(-45.000000) translate(-343.026606, -343.526606) "></path>
            <path d="M343.026606,102.026606 L343.026606,127.026606 M585.526606,344.526606 L560.526606,344.526606 M343.026606,587.026606 L343.026606,562.026606 M100.526606,344.526606 L125.526606,344.526606" id="Line-Copy-3" stroke="#000000" sketch:type="MSShapeGroup" transform="translate(343.026606, 344.526606) rotate(247.000000) translate(-343.026606, -344.526606) "></path>
            <path d="M343.026606,101.026606 L343.026606,126.026606 M585.526606,343.526606 L560.526606,343.526606 M343.026606,586.026606 L343.026606,561.026606 M100.526606,343.526606 L125.526606,343.526606" id="Line-Copy-2" stroke="#000000" sketch:type="MSShapeGroup" transform="translate(343.026606, 343.526606) rotate(-67.000000) translate(-343.026606, -343.526606) "></path>
            <g id="Numbers" transform="translate(63.026606, 63.526606)" font-weight="normal" font-family="Tahoma" sketch:type="MSTextLayer" sketch:alignment="middle" font-size="26" fill="#000000">
                <g id="0" transform="translate(272.000000, 0.000000)">
                    <text>
                        <tspan x="0.903320312" y="26">0</tspan>
                    </text>
                </g>
                <g id="180" transform="translate(258.000000, 529.000000)">
                    <text transform="translate(22.000000, 15.500000) scale(1, -1) translate(-22.000000, -15.500000) ">
                        <tspan x="0.709960938" y="26">180</tspan>
                    </text>
                </g>
                <g id="90" transform="translate(545.000000, 280.000000) rotate(90.000000) translate(-545.000000, -280.000000) translate(530.500000, 264.500000)">
                    <text>
                        <tspan x="0.306640625" y="26">90</tspan>
                    </text>
                </g>
                <g id="45" transform="translate(467.414214, 93.757359) rotate(45.000000) translate(-467.414214, -93.757359) translate(453.414214, 80.757359)">
                    <text>
                        <tspan x="0.13506775" y="26.9289322">45</tspan>
                    </text>
                </g>
                <g id="135" transform="translate(464.828427, 465.000000) rotate(135.000000) translate(-464.828427, -465.000000) translate(442.828427, 449.000000)">
                    <text>
                        <tspan x="0.952601625" y="26.5147186">135</tspan>
                    </text>
                </g>
                <g id="225" transform="translate(93.853553, 464.767767) rotate(225.000000) translate(-93.853553, -464.767767) translate(71.853553, 448.767767)">
                    <text>
                        <tspan x="0.452601625" y="26.9289322">225</tspan>
                    </text>
                </g>
                <g id="270" transform="translate(16.000000, 280.000000) rotate(-90.000000) translate(-16.000000, -280.000000) translate(-6.000000, 264.000000)">
                    <text>
                        <tspan x="0.709960938" y="26">270</tspan>
                    </text>
                </g>
                <g id="315" transform="translate(93.050253, 94.878680) rotate(-45.000000) translate(-93.050253, -94.878680) translate(71.050253, 78.878680)">
                    <text>
                        <tspan x="0.952601625" y="26.6862915">315</tspan>
                    </text>
                </g>
            </g>
            <g id="Group" transform="translate(165.526606, 158.526606)" font-weight="normal" font-family="Tahoma" sketch:type="MSTextLayer" sketch:alignment="middle" font-size="24">
                <g id="N" transform="translate(169.000000, 0.000000)" fill="#FF0000">
                    <text>
                        <tspan x="0.490234375" y="24">N</tspan>
                    </text>
                </g>
                <g id="E" transform="translate(332.000000, 170.000000)" fill="#000000">
                    <text>
                        <tspan x="0.767578125" y="24.5">E</tspan>
                    </text>
                </g>
                <g id="S" transform="translate(170.000000, 336.000000)" fill="#000000">
                    <text>
                        <tspan x="0.314453125" y="24">S</tspan>
                    </text>
                </g>
                <g id="W" transform="translate(0.000000, 170.000000)" fill="#000000">
                    <text>
                        <tspan x="0.177734375" y="24.5">W</tspan>
                    </text>
                </g>
            </g>
            <g id="Line-+-Line" transform="translate(208.000000, 208.000000)" stroke="#000000" sketch:type="MSShapeGroup" stroke-linecap="square">
                <path d="M135.026606,-8.12420191e-26 L135.026606,270 L135.026606,-8.12420191e-26 Z" id="Line" stroke-width="2"></path>
                <path d="M0.026606,135 L270.026606,135" id="Line" stroke-width="2"></path>
                <path d="M212.808352,57.7448601 L57.2448601,213.308352" id="Line"></path>
                <path d="M212.808352,57.7448601 L57.2448601,213.308352" id="Line-Copy" transform="translate(135.026606, 135.526606) rotate(-270.000000) translate(-135.026606, -135.526606) "></path>
            </g>
            <g id="arrow" transform="translate(343.026606, 343.526606) rotate(23.000000) translate(-343.026606, -343.526606) translate(325.026606, 111.526606)" sketch:type="MSShapeGroup">
                <path d="M23.1581849,34.6875 L31.026606,34.6875 L18.026606,1 L5.026606,34.6875 L12.8950271,34.6875 L12.8950271,232 L23.1581849,232 L23.1581849,34.6875 Z" id="Triangle-10" stroke="#FF0000" stroke-width="3"></path>
                <path d="M23.1581849,265.6875 L31.026606,265.6875 L18.026606,232 L5.026606,265.6875 L12.8950271,265.6875 L12.8950271,463 L23.1581849,463 L23.1581849,265.6875 Z" id="Triangle-10-Copy" stroke="#000000" stroke-width="3" transform="translate(18.026606, 347.500000) scale(1, -1) translate(-18.026606, -347.500000) "></path>
                <circle id="Oval-16" stroke="#000000" stroke-width="4" fill="#FFFFFF" cx="18.5" cy="232" r="17.5"></circle>
            </g>
        </g>
    </g>
</svg>